<svg version="1.1" xmlns="http://www.w3.org/2000/svg" xmlns:xlink="http://www.w3.org/1999/xlink" width="1200pt" height="1200pt" viewBox="0,0,256,256"><g fill="#75c59b" fill-rule="nonzero" stroke="none" stroke-width="1" stroke-linecap="butt" stroke-linejoin="miter" stroke-miterlimit="10" stroke-dasharray="" stroke-dashoffset="0" font-family="none" font-weight="none" font-size="none" text-anchor="none" style="mix-blend-mode: normal"><g transform="scale(0.21333,0.21333)"><path d="M917.51,317.5c-133.39,0 -255.72,125.27 -317.51,201.04c-61.801,-75.766 -184.12,-201.04 -317.51,-201.04c-155.77,0 -282.49,126.73 -282.49,282.5c0,155.77 126.72,282.5 282.49,282.5c133.39,0 255.71,-125.27 317.51,-201.05c61.777,75.77 184.11,201.05 317.51,201.05c155.76,0 282.49,-126.73 282.49,-282.5c0,-155.77 -126.73,-282.5 -282.49,-282.5zM282.49,784.41c-101.68,0 -184.4,-82.738 -184.4,-184.4c0,-101.69 82.727,-184.41 184.4,-184.41c94.738,0 203.64,115.48 256.84,184.41c-53.207,68.965 -162.1,184.4 -256.84,184.4zM917.51,784.41c-94.766,0 -203.7,-115.52 -256.87,-184.46c53.074,-68.953 161.79,-184.38 256.87,-184.38c101.69,0 184.39,82.727 184.39,184.41c0,101.7 -82.703,184.43 -184.39,184.43z"></path></g></g></svg>